# xmcd CD database file
#
# Track frame offsets:
#	150
#	16120
#	34195
#	51707
#	65125
#	78030
#	87437
#	103187
#	119250
#	139147
#
# Disc length: 2021 seconds
#
# Revision: 0
# Processed by: cddbd v1.4PL0 Copyright (c) Steve Scherf et al.
# Submitted via: CDex 1.40Release
#
DISCID=8807e30a
DTITLE=Willie Nelson - The Very Best of Willie Nelson
DYEAR=1900
DGENRE=Country
TTITLE0=Always on my Mind
TTITLE1=Help Me Make it Through the Night
TTITLE2=All of Me
TTITLE3=I Love You A Thousand Ways
TTITLE4=Remember Me(When the candlelights are Gleaming
TTITLE5=If you've got the money, I've got the time
TTITLE6=Let it be me
TTITLE7=Blue Skies
TTITLE8=Angel Flying too close to the ground
TTITLE9=Forgiving you was easy
EXTD=ID3G: 2
EXTT0=
EXTT1=
EXTT2=
EXTT3=
EXTT4=
EXTT5=
EXTT6=
EXTT7=
EXTT8=
EXTT9=
PLAYORDER=
